<svg width="45" height="45" viewBox="0 0 45 45" fill="none" xmlns="http://www.w3.org/2000/svg">
<path d="M10.7821 27.8189C10.7821 27.8189 -2.53566 30.6952 0.431092 44.5699L0.430213 44.569C14.3049 47.5359 17.1812 34.218 17.1812 34.218L17.7286 27.3731L10.7821 27.8189Z" fill="white"/>
<path d="M12.0195 29.0563C12.0195 29.0563 4.98017 32.4911 6.01816 38.983C12.51 40.021 15.9449 32.9816 15.9449 32.9816L15.9398 29.0614L12.0195 29.0563Z" fill="white"/>
<path d="M44.8384 2.63242C44.7047 1.32681 43.6732 0.295237 42.3675 0.161467C39.1888 -0.16241 32.9308 -0.273504 26.5604 2.59182L32.6885 12.3115L42.4082 18.4396C45.2734 12.069 45.1623 5.81099 44.8384 2.63242Z" fill="white"/>
<path d="M44.8386 2.63244C44.7048 1.32683 43.6733 0.295253 42.3676 0.161483C42.2952 0.1541 42.2195 0.146981 42.1439 0.139862C42.4496 3.38171 42.4919 9.49784 39.692 15.723L31.6383 10.6453L32.6887 12.3112L42.4083 18.4392C45.2736 12.069 45.1625 5.81092 44.8386 2.63244Z" fill="white"/>
<path d="M12.7247 18.7739L5.48025 19.1239C5.37926 19.1299 5.29093 19.1935 5.25323 19.2875L2.63813 25.8053C2.53231 26.0691 2.86427 26.2883 3.06528 26.0874L6.41646 22.7362C6.48325 22.6694 6.58108 22.6438 6.67204 22.6695L11.3997 24.002L12.7247 18.7739Z" fill="white"/>
<path d="M26.2261 32.2754L25.8761 39.5199C25.8701 39.6209 25.8065 39.7092 25.7125 39.7469L19.1947 42.362C18.9309 42.4678 18.7117 42.1359 18.9126 41.9349L22.2638 38.5837C22.3306 38.5169 22.3562 38.4191 22.3305 38.3281L20.998 33.6005L26.2261 32.2754Z" fill="white"/>
<path d="M42.4082 18.4395L26.5607 2.59184C20.0049 5.54013 13.3314 11.6411 9.77688 23.9081C9.37434 25.2973 9.75948 26.7962 10.7822 27.8189L17.1811 34.2179C18.2039 35.2407 19.7026 35.6257 21.0919 35.2232C33.359 31.6686 39.46 24.9952 42.4082 18.4395Z" fill="white"/>
<path d="M39.692 15.7232C36.7437 22.2788 30.6428 28.9524 18.3757 32.5069C16.9865 32.9095 15.4877 32.5243 14.465 31.5017L17.1812 34.2179C18.204 35.2407 19.7027 35.6257 21.092 35.2232C33.3591 31.6686 39.4601 24.9952 42.4083 18.4395L39.692 15.7232Z" fill="white"/>
<path d="M25.0398 27.767C29.3513 27.767 32.8464 24.2718 32.8464 19.9603C32.8464 15.6489 29.3513 12.1537 25.0398 12.1537C20.7283 12.1537 17.2332 15.6489 17.2332 19.9603C17.2332 24.2718 20.7283 27.767 25.0398 27.767Z" fill="white"/>
<path d="M25.0398 25.2689C27.9717 25.2689 30.3484 22.8921 30.3484 19.9603C30.3484 17.0284 27.9717 14.6517 25.0398 14.6517C22.1079 14.6517 19.7312 17.0284 19.7312 19.9603C19.7312 22.8921 22.1079 25.2689 25.0398 25.2689Z" fill="white"/>
</svg>
