<svg width="71" height="110" viewBox="0 0 71 110" fill="none" xmlns="http://www.w3.org/2000/svg">
<path d="M48.6838 38.9909C47.8099 38.7862 47.2673 37.9116 47.472 37.0378L55.3721 3.30926C55.7757 1.58546 57.2939 0.381592 59.0642 0.381592H69.3746C70.2723 0.381592 71 1.10908 71 2.00675C71 2.90442 70.2723 3.6319 69.3746 3.6319H59.0642C58.8114 3.6319 58.5945 3.80401 58.5368 4.04999L50.6367 37.7785C50.4318 38.6596 49.5373 39.191 48.6838 38.9909V38.9909Z" fill="#BAD6E5"/>
<path d="M35.9166 68.7186C52.0618 68.7186 65.1502 55.6303 65.1502 39.4851C65.1502 23.3398 52.0618 10.2515 35.9166 10.2515C19.7713 10.2515 6.68298 23.3398 6.68298 39.4851C6.68298 55.6303 19.7713 68.7186 35.9166 68.7186Z" fill="#EAF6FF"/>
<path d="M35.9165 10.2515C34.8175 10.2515 33.7334 10.3142 32.666 10.4323C47.2813 12.0494 58.6493 24.4389 58.6493 39.4851C58.6493 54.5313 47.2813 66.9207 32.666 68.5378C33.7334 68.6561 34.8175 68.7186 35.9165 68.7186C52.0618 68.7186 65.1503 55.6303 65.1503 39.4851C65.1503 23.3398 52.0618 10.2515 35.9165 10.2515V10.2515Z" fill="#D8ECFE"/>
<path d="M52.5326 15.4319L47.472 37.0379C47.2673 37.9116 47.8099 38.786 48.6838 38.991C49.5373 39.1911 50.4318 38.6596 50.637 37.779L55.3518 17.6494C54.4593 16.8546 53.5181 16.1137 52.5326 15.4319V15.4319Z" fill="#C4E2FF"/>
<path d="M52.1186 109.708H19.7146C16.3844 109.708 13.5928 107.191 13.2483 103.879L7.35327 47.1885H64.4795L58.5844 103.879C58.2404 107.191 55.4488 109.708 52.1186 109.708Z" fill="#6070FF"/>
<path d="M57.9786 47.1885L52.0835 103.879C51.7393 107.191 48.9477 109.708 45.6175 109.708H52.1185C55.4487 109.708 58.2404 107.191 58.5848 103.879L64.4799 47.1885H57.9786Z" fill="#6070FF"/>
<path d="M68.8136 37.4368H3.01926C1.82244 37.4368 0.852173 38.407 0.852173 39.6039V45.0215C0.852173 46.2183 1.82244 47.1886 3.01926 47.1886H68.8136C70.0104 47.1886 70.9807 46.2183 70.9807 45.0215V39.6039C70.9807 38.407 70.0104 37.4368 68.8136 37.4368Z" fill="#6070FF"/>
<path d="M68.8137 37.4368H62.3126C63.5094 37.4368 64.4797 38.407 64.4797 39.6039V45.0215C64.4797 46.2183 63.5094 47.1886 62.3126 47.1886H68.8137C70.0105 47.1886 70.9808 46.2183 70.9808 45.0215V39.6039C70.9808 38.407 70.0105 37.4368 68.8137 37.4368Z" fill="#6070FF"/>
</svg>
