<svg width="71" height="110" viewBox="0 0 71 110" fill="none" xmlns="http://www.w3.org/2000/svg">
<path d="M48.6838 39.1828C47.8099 38.9781 47.2673 38.1035 47.472 37.2297L55.3721 3.50116C55.7757 1.77735 57.2939 0.573486 59.0642 0.573486H69.3746C70.2723 0.573486 71 1.30097 71 2.19864C71 3.09631 70.2723 3.8238 69.3746 3.8238H59.0642C58.8114 3.8238 58.5945 3.9959 58.5368 4.24188L50.6367 37.9704C50.4318 38.8514 49.5373 39.3829 48.6838 39.1828V39.1828Z" fill="#BAD6E5"/>
<path d="M35.9166 68.9105C52.0618 68.9105 65.1502 55.8222 65.1502 39.677C65.1502 23.5317 52.0618 10.4434 35.9166 10.4434C19.7713 10.4434 6.68298 23.5317 6.68298 39.677C6.68298 55.8222 19.7713 68.9105 35.9166 68.9105Z" fill="#EAF6FF"/>
<path d="M35.9165 10.4434C34.8175 10.4434 33.7334 10.5061 32.666 10.6242C47.2813 12.2413 58.6493 24.6308 58.6493 39.677C58.6493 54.7231 47.2813 67.1126 32.666 68.7297C33.7334 68.848 34.8175 68.9105 35.9165 68.9105C52.0618 68.9105 65.1503 55.8222 65.1503 39.677C65.1503 23.5317 52.0618 10.4434 35.9165 10.4434V10.4434Z" fill="#D8ECFE"/>
<path d="M52.5326 15.6238L47.472 37.2297C47.2673 38.1035 47.8099 38.9779 48.6838 39.1829C49.5373 39.383 50.4318 38.8515 50.637 37.9709L55.3518 17.8413C54.4593 17.0465 53.5181 16.3056 52.5326 15.6238V15.6238Z" fill="#C4E2FF"/>
<path d="M52.1186 109.9H19.7146C16.3844 109.9 13.5928 107.383 13.2483 104.071L7.35327 47.3804H64.4795L58.5844 104.071C58.2404 107.383 55.4488 109.9 52.1186 109.9Z" fill="#04DEA8"/>
<path d="M57.9786 47.3804L52.0835 104.071C51.7393 107.383 48.9477 109.9 45.6175 109.9H52.1185C55.4487 109.9 58.2404 107.383 58.5848 104.071L64.4799 47.3804H57.9786Z" fill="#04DEA8"/>
<path d="M68.8136 37.6287H3.01926C1.82244 37.6287 0.852173 38.5989 0.852173 39.7958V45.2134C0.852173 46.4102 1.82244 47.3805 3.01926 47.3805H68.8136C70.0104 47.3805 70.9807 46.4102 70.9807 45.2134V39.7958C70.9807 38.5989 70.0104 37.6287 68.8136 37.6287Z" fill="#04DEA8"/>
<path d="M68.8137 37.6287H62.3126C63.5094 37.6287 64.4797 38.5989 64.4797 39.7958V45.2134C64.4797 46.4102 63.5094 47.3805 62.3126 47.3805H68.8137C70.0105 47.3805 70.9808 46.4102 70.9808 45.2134V39.7958C70.9808 38.5989 70.0105 37.6287 68.8137 37.6287Z" fill="#04DEA8"/>
</svg>
