<svg width="71" height="110" viewBox="0 0 71 110" fill="none" xmlns="http://www.w3.org/2000/svg">
<path d="M47.8316 39.0644C46.9576 38.8597 46.415 37.9851 46.6198 37.1113L54.5199 3.38275C54.9234 1.65894 56.4416 0.455078 58.212 0.455078H68.5223C69.42 0.455078 70.1477 1.18257 70.1477 2.08023C70.1477 2.9779 69.42 3.70539 68.5223 3.70539H58.212C57.9591 3.70539 57.7422 3.87749 57.6846 4.12348L49.7845 37.852C49.5795 38.733 48.685 39.2645 47.8316 39.0644V39.0644Z" fill="#BAD6E5"/>
<path d="M35.0644 68.7921C51.2096 68.7921 64.298 55.7038 64.298 39.5585C64.298 23.4133 51.2096 10.325 35.0644 10.325C18.9191 10.325 5.83078 23.4133 5.83078 39.5585C5.83078 55.7038 18.9191 68.7921 35.0644 68.7921Z" fill="#EAF6FF"/>
<path d="M35.0643 10.325C33.9653 10.325 32.8812 10.3877 31.8138 10.5058C46.4291 12.1229 57.7971 24.5123 57.7971 39.5585C57.7971 54.6047 46.4291 66.9942 31.8138 68.6113C32.8812 68.7296 33.9653 68.7921 35.0643 68.7921C51.2096 68.7921 64.2981 55.7038 64.2981 39.5585C64.2981 23.4133 51.2096 10.325 35.0643 10.325V10.325Z" fill="#D8ECFE"/>
<path d="M51.6804 15.5054L46.6198 37.1113C46.415 37.9851 46.9576 38.8595 47.8316 39.0645C48.685 39.2645 49.5795 38.7331 49.7847 37.8525L54.4996 17.7229C53.607 16.9281 52.6658 16.1872 51.6804 15.5054V15.5054Z" fill="#C4E2FF"/>
<path d="M51.2664 109.781H18.8624C15.5322 109.781 12.7406 107.265 12.3961 103.952L6.50107 47.2617H63.6273L57.7322 103.952C57.3882 107.265 54.5966 109.781 51.2664 109.781Z" fill="#0B2641"/>
<path d="M57.1264 47.2617L51.2314 103.952C50.8872 107.265 48.0955 109.781 44.7654 109.781H51.2664C54.5966 109.781 57.3882 107.265 57.7326 103.952L63.6277 47.2617H57.1264Z" fill="#0B2641"/>
<path d="M67.9615 37.5103H2.16709C0.970268 37.5103 0 38.4805 0 39.6773V45.095C0 46.2918 0.970268 47.262 2.16709 47.262H67.9615C69.1583 47.262 70.1285 46.2918 70.1285 45.095V39.6773C70.1285 38.4805 69.1583 37.5103 67.9615 37.5103Z" fill="#0B2641"/>
<path d="M67.9615 37.5103H61.4604C62.6573 37.5103 63.6275 38.4805 63.6275 39.6773V45.095C63.6275 46.2918 62.6573 47.262 61.4604 47.262H67.9615C69.1583 47.262 70.1286 46.2918 70.1286 45.095V39.6773C70.1286 38.4805 69.1583 37.5103 67.9615 37.5103Z" fill="#0B2641"/>
</svg>
