<svg width="89" height="139" viewBox="0 0 89 139" fill="none" xmlns="http://www.w3.org/2000/svg">
<path d="M60.6863 48.9856C59.5774 48.7258 58.889 47.6162 59.1488 46.5076L69.1721 3.71448C69.6841 1.52741 71.6103 0 73.8564 0H86.9377C88.0766 0 88.9999 0.923 88.9999 2.06192C88.9999 3.20083 88.0766 4.12383 86.9377 4.12383H73.8564C73.5356 4.12383 73.2604 4.34219 73.1873 4.65428L63.164 47.4474C62.904 48.5652 61.7691 49.2395 60.6863 48.9856Z" fill="#BAD6E5"/>
<path d="M44.4881 86.7023C64.9724 86.7023 81.5782 70.0965 81.5782 49.6122C81.5782 29.1279 64.9724 12.5221 44.4881 12.5221C24.0038 12.5221 7.39795 29.1279 7.39795 49.6122C7.39795 70.0965 24.0038 86.7023 44.4881 86.7023Z" fill="#EAF6FF"/>
<path d="M44.4879 12.5221C43.0935 12.5221 41.7181 12.6017 40.3638 12.7516C58.9069 14.8032 73.3301 30.5224 73.3301 49.6122C73.3301 68.7021 58.9069 84.4212 40.3638 86.4729C41.7181 86.623 43.0935 86.7023 44.4879 86.7023C64.9721 86.7023 81.5783 70.0965 81.5783 49.6122C81.5783 29.128 64.9721 12.5221 44.4879 12.5221Z" fill="#D8ECFE"/>
<path d="M65.5695 19.095L59.1488 46.5075C58.889 47.6161 59.5774 48.7255 60.6863 48.9856C61.7691 49.2394 62.904 48.5651 63.1643 47.4479L69.1463 21.9084C68.0139 20.9001 66.8197 19.96 65.5695 19.095Z" fill="#C4E2FF"/>
<path d="M65.0443 138.707H23.9317C19.7065 138.707 16.1646 135.515 15.7277 131.312L8.24829 59.386H80.7272L73.2478 131.312C72.8114 135.515 69.2695 138.707 65.0443 138.707Z" fill="#FFED4E"/>
<path d="M72.4793 59.386L64.9999 131.312C64.5632 135.515 61.0213 138.707 56.7961 138.707H65.0444C69.2695 138.707 72.8114 135.515 73.2484 131.312L80.7278 59.386H72.4793Z" fill="#FFED4E"/>
<path d="M86.2261 47.0137H2.74949C1.23103 47.0137 0 48.2447 0 49.7632V56.6368C0 58.1552 1.23103 59.3863 2.74949 59.3863H86.2261C87.7446 59.3863 88.9756 58.1552 88.9756 56.6368V49.7632C88.9756 48.2447 87.7446 47.0137 86.2261 47.0137Z" fill="#FFED4E"/>
<path d="M86.2262 47.0137H77.978C79.4965 47.0137 80.7275 48.2447 80.7275 49.7632V56.6368C80.7275 58.1552 79.4965 59.3863 77.978 59.3863H86.2262C87.7447 59.3863 88.9757 58.1552 88.9757 56.6368V49.7632C88.9757 48.2447 87.7447 47.0137 86.2262 47.0137Z" fill="#FFED4E"/>
</svg>
