<svg width="71" height="110" viewBox="0 0 71 110" fill="none" xmlns="http://www.w3.org/2000/svg">
<path d="M47.8316 38.9909C46.9576 38.7862 46.415 37.9116 46.6198 37.0378L54.5199 3.30926C54.9234 1.58546 56.4416 0.381592 58.212 0.381592H68.5223C69.42 0.381592 70.1477 1.10908 70.1477 2.00675C70.1477 2.90442 69.42 3.6319 68.5223 3.6319H58.212C57.9591 3.6319 57.7422 3.80401 57.6846 4.04999L49.7845 37.7785C49.5795 38.6596 48.685 39.191 47.8316 38.9909V38.9909Z" fill="#BAD6E5"/>
<path d="M35.0644 68.7186C51.2096 68.7186 64.298 55.6303 64.298 39.4851C64.298 23.3398 51.2096 10.2515 35.0644 10.2515C18.9191 10.2515 5.83078 23.3398 5.83078 39.4851C5.83078 55.6303 18.9191 68.7186 35.0644 68.7186Z" fill="#EAF6FF"/>
<path d="M35.0643 10.2515C33.9653 10.2515 32.8812 10.3142 31.8138 10.4323C46.4291 12.0494 57.7971 24.4389 57.7971 39.4851C57.7971 54.5313 46.4291 66.9207 31.8138 68.5378C32.8812 68.6561 33.9653 68.7186 35.0643 68.7186C51.2096 68.7186 64.2981 55.6303 64.2981 39.4851C64.2981 23.3398 51.2096 10.2515 35.0643 10.2515V10.2515Z" fill="#D8ECFE"/>
<path d="M51.6804 15.4319L46.6198 37.0379C46.415 37.9116 46.9576 38.786 47.8316 38.991C48.685 39.1911 49.5795 38.6596 49.7847 37.779L54.4996 17.6494C53.607 16.8546 52.6658 16.1137 51.6804 15.4319V15.4319Z" fill="#C4E2FF"/>
<path d="M51.2664 109.708H18.8624C15.5322 109.708 12.7406 107.191 12.3961 103.879L6.50107 47.1885H63.6273L57.7322 103.879C57.3882 107.191 54.5966 109.708 51.2664 109.708Z" fill="#FFED4E"/>
<path d="M57.1264 47.1885L51.2314 103.879C50.8872 107.191 48.0955 109.708 44.7654 109.708H51.2664C54.5966 109.708 57.3882 107.191 57.7326 103.879L63.6277 47.1885H57.1264Z" fill="#FFED4E"/>
<path d="M67.9615 37.4368H2.16709C0.970268 37.4368 0 38.407 0 39.6039V45.0215C0 46.2183 0.970268 47.1886 2.16709 47.1886H67.9615C69.1583 47.1886 70.1285 46.2183 70.1285 45.0215V39.6039C70.1285 38.407 69.1583 37.4368 67.9615 37.4368Z" fill="#FFED4E"/>
<path d="M67.9615 37.4368H61.4604C62.6573 37.4368 63.6275 38.407 63.6275 39.6039V45.0215C63.6275 46.2183 62.6573 47.1886 61.4604 47.1886H67.9615C69.1583 47.1886 70.1286 46.2183 70.1286 45.0215V39.6039C70.1286 38.407 69.1583 37.4368 67.9615 37.4368Z" fill="#FFED4E"/>
</svg>
