<svg width="99" height="155" viewBox="0 0 99 155" fill="none" xmlns="http://www.w3.org/2000/svg">
<path d="M67.5051 54.9843C66.2716 54.6953 65.5059 53.4609 65.7949 52.2278L76.9443 4.62647C77.5139 2.19365 79.6565 0.494629 82.155 0.494629H96.7061C97.973 0.494629 99 1.52134 99 2.78822C99 4.05511 97.973 5.08182 96.7061 5.08182H82.155C81.7982 5.08182 81.492 5.32471 81.4107 5.67186L70.2612 53.2732C69.9719 54.5166 68.7096 55.2666 67.5051 54.9843V54.9843Z" fill="#BAD6E5"/>
<path d="M49.4866 96.9389C72.2725 96.9389 90.7441 78.4673 90.7441 55.6814C90.7441 32.8955 72.2725 14.4238 49.4866 14.4238C26.7006 14.4238 8.229 32.8955 8.229 55.6814C8.229 78.4673 26.7006 96.9389 49.4866 96.9389Z" fill="#EAF6FF"/>
<path d="M49.4867 14.4238C47.9356 14.4238 46.4056 14.5124 44.8992 14.6791C65.5258 16.9612 81.5695 34.4466 81.5695 55.6814C81.5695 76.9162 65.5258 94.4016 44.8992 96.6837C46.4056 96.8506 47.9356 96.9389 49.4867 96.9389C72.2725 96.9389 90.7445 78.4672 90.7445 55.6814C90.7445 32.8955 72.2725 14.4238 49.4867 14.4238V14.4238Z" fill="#D8ECFE"/>
<path d="M72.9369 21.7352L65.7949 52.2279C65.5059 53.461 66.2716 54.695 67.5051 54.9843C68.7096 55.2667 69.9719 54.5166 70.2615 53.2739L76.9157 24.8648C75.656 23.7431 74.3277 22.6974 72.9369 21.7352V21.7352Z" fill="#C4E2FF"/>
<path d="M72.3527 154.787H26.6206C21.9207 154.787 17.9809 151.236 17.4948 146.561L9.17505 66.5532H89.7977L81.4779 146.561C80.9925 151.236 77.0526 154.787 72.3527 154.787Z" fill="#FF78CE"/>
<path d="M80.623 66.5532L72.3033 146.561C71.8175 151.236 67.8776 154.787 63.1777 154.787H72.3527C77.0526 154.787 80.9925 151.236 81.4786 146.561L89.7983 66.5532H80.623Z" fill="#EB78C1"/>
<path d="M95.9144 52.7908H3.05843C1.36935 52.7908 0 54.1601 0 55.8492V63.4951C0 65.1842 1.36935 66.5535 3.05843 66.5535H95.9144C97.6035 66.5535 98.9729 65.1842 98.9729 63.4951V55.8492C98.9729 54.1601 97.6035 52.7908 95.9144 52.7908Z" fill="#FF78CE"/>
<path d="M95.9145 52.7908H86.7395C88.4286 52.7908 89.7979 54.1601 89.7979 55.8492V63.4951C89.7979 65.1842 88.4286 66.5535 86.7395 66.5535H95.9145C97.6036 66.5535 98.9729 65.1842 98.9729 63.4951V55.8492C98.9729 54.1601 97.6036 52.7908 95.9145 52.7908Z" fill="#EB78C1"/>
</svg>
