<svg width="72" height="110" viewBox="0 0 72 110" fill="none" xmlns="http://www.w3.org/2000/svg">
<path d="M48.7576 38.9909C47.8836 38.7862 47.3411 37.9116 47.5458 37.0378L55.4459 3.30926C55.8495 1.58546 57.3677 0.381592 59.138 0.381592H69.4484C70.3461 0.381592 71.0738 1.10908 71.0738 2.00675C71.0738 2.90442 70.3461 3.6319 69.4484 3.6319H59.138C58.8852 3.6319 58.6683 3.80401 58.6106 4.04999L50.7105 37.7785C50.5055 38.6596 49.6111 39.191 48.7576 38.9909V38.9909Z" fill="#BAD6E5"/>
<path d="M35.9905 68.7186C52.1358 68.7186 65.2241 55.6303 65.2241 39.4851C65.2241 23.3398 52.1358 10.2515 35.9905 10.2515C19.8452 10.2515 6.7569 23.3398 6.7569 39.4851C6.7569 55.6303 19.8452 68.7186 35.9905 68.7186Z" fill="#EAF6FF"/>
<path d="M35.9904 10.2515C34.8914 10.2515 33.8073 10.3142 32.7399 10.4323C47.3552 12.0494 58.7231 24.4389 58.7231 39.4851C58.7231 54.5313 47.3552 66.9207 32.7399 68.5378C33.8073 68.6561 34.8914 68.7186 35.9904 68.7186C52.1356 68.7186 65.2242 55.6303 65.2242 39.4851C65.2242 23.3398 52.1356 10.2515 35.9904 10.2515V10.2515Z" fill="#D8ECFE"/>
<path d="M52.6064 15.4319L47.5458 37.0379C47.3411 37.9116 47.8836 38.786 48.7576 38.991C49.6111 39.1911 50.5055 38.6596 50.7107 37.779L55.4256 17.6494C54.5331 16.8546 53.5919 16.1137 52.6064 15.4319V15.4319Z" fill="#C4E2FF"/>
<path d="M52.1925 109.708H19.7885C16.4583 109.708 13.6667 107.191 13.3222 103.879L7.42719 47.1885H64.5534L58.6584 103.879C58.3144 107.191 55.5227 109.708 52.1925 109.708Z" fill="#FF4959"/>
<path d="M58.0526 47.1885L52.1575 103.879C51.8133 107.191 49.0216 109.708 45.6915 109.708H52.1925C55.5227 109.708 58.3143 107.191 58.6588 103.879L64.5538 47.1885H58.0526Z" fill="#FF4959"/>
<path d="M68.8875 37.4368H3.09318C1.89635 37.4368 0.926086 38.407 0.926086 39.6039V45.0215C0.926086 46.2183 1.89635 47.1886 3.09318 47.1886H68.8875C70.0844 47.1886 71.0546 46.2183 71.0546 45.0215V39.6039C71.0546 38.407 70.0844 37.4368 68.8875 37.4368Z" fill="#FF4959"/>
<path d="M68.8876 37.4368H62.3865C63.5834 37.4368 64.5536 38.407 64.5536 39.6039V45.0215C64.5536 46.2183 63.5834 47.1886 62.3865 47.1886H68.8876C70.0844 47.1886 71.0547 46.2183 71.0547 45.0215V39.6039C71.0547 38.407 70.0844 37.4368 68.8876 37.4368Z" fill="#FF4959"/>
</svg>
