<svg width="31" height="49" viewBox="0 0 31 49" fill="none" xmlns="http://www.w3.org/2000/svg">
<path d="M21.1379 17.0682C20.7516 16.9777 20.5119 16.5911 20.6024 16.2048L24.0936 1.29425C24.2719 0.532199 24.9428 0 25.7252 0H30.2816C30.6783 0 30.9999 0.321604 30.9999 0.71844C30.9999 1.11528 30.6783 1.43688 30.2816 1.43688H25.7252C25.6135 1.43688 25.5176 1.51296 25.4921 1.62171L22.0009 16.5322C21.9103 16.9217 21.515 17.1567 21.1379 17.0682Z" fill="white"/>
<path d="M15.4958 30.2099C22.6308 30.2099 28.4148 24.4239 28.4148 17.2865C28.4148 10.1491 22.6308 4.36314 15.4958 4.36314C8.36083 4.36314 2.57678 10.1491 2.57678 17.2865C2.57678 24.4239 8.36083 30.2099 15.4958 30.2099Z" fill="white"/>
<path d="M15.4958 4.36314C15.0101 4.36314 14.531 4.3909 14.0593 4.4431C20.5182 5.15795 25.5419 10.635 25.5419 17.2865C25.5419 23.9381 20.5182 29.4151 14.0593 30.13C14.531 30.1823 15.0101 30.2099 15.4958 30.2099C22.6308 30.2099 28.4149 24.4239 28.4149 17.2865C28.4149 10.1492 22.6308 4.36314 15.4958 4.36314Z" fill="white"/>
<path d="M22.8388 6.65331L20.6024 16.2048C20.5119 16.591 20.7516 16.9776 21.1379 17.0682C21.515 17.1566 21.9103 16.9217 22.001 16.5324L24.0846 7.6336C23.6902 7.28226 23.2742 6.95471 22.8388 6.65331Z" fill="white"/>
<path d="M22.6559 48.3302H8.3358C6.86412 48.3302 5.63042 47.2177 5.47821 45.7535L2.87305 20.692H28.1185L25.5133 45.7535C25.3613 47.2177 24.1276 48.3302 22.6559 48.3302Z" fill="white"/>
<path d="M25.2454 20.692L22.6402 45.7535C22.4881 47.2177 21.2544 48.3302 19.7827 48.3302H22.6557C24.1274 48.3302 25.3611 47.2177 25.5133 45.7535L28.1184 20.692H25.2454Z" fill="white"/>
<path d="M30.0338 16.3811H0.957687C0.428784 16.3811 0 16.81 0 17.3391V19.7341C0 20.2632 0.428784 20.6921 0.957687 20.6921H30.0338C30.5627 20.6921 30.9915 20.2632 30.9915 19.7341V17.3391C30.9915 16.81 30.5627 16.3811 30.0338 16.3811Z" fill="white"/>
<path d="M30.0338 16.3811H27.1608C27.6897 16.3811 28.1185 16.81 28.1185 17.3391V19.7341C28.1185 20.2632 27.6897 20.6921 27.1608 20.6921H30.0338C30.5627 20.6921 30.9915 20.2632 30.9915 19.7341V17.3391C30.9915 16.81 30.5627 16.3811 30.0338 16.3811Z" fill="white"/>
</svg>
