<svg width="49" height="43" viewBox="0 0 49 43" fill="none" xmlns="http://www.w3.org/2000/svg">
<path d="M24.1851 11.338C27.316 11.338 29.8542 8.79993 29.8542 5.66902C29.8542 2.53811 27.316 0 24.1851 0C21.0542 0 18.5161 2.53811 18.5161 5.66902C18.5161 8.79993 21.0542 11.338 24.1851 11.338Z" fill="white"/>
<path d="M44.0299 21.2656L38.7463 20.1635C36.9462 19.7864 35.1691 20.6115 34.2295 22.0782C33.3169 21.6095 32.3356 21.2053 31.2918 20.8698V17.728C31.2939 15.3508 29.3479 13.4069 26.9791 13.4069H21.5768C19.1955 13.4069 17.2579 15.3508 17.2579 17.728V20.8864C16.2245 21.2156 15.2536 21.6198 14.3348 22.0907C13.3952 20.6176 11.6159 19.7864 9.81368 20.1635L4.52588 21.2656C2.20492 21.7511 0.698565 24.0533 1.18401 26.3826L2.51119 32.7225C2.99248 35.0455 5.29674 36.5518 7.61982 36.0664L9.29279 35.7164C10.1303 36.9539 11.2887 38.0894 12.7721 39.0603C15.8618 41.0854 19.9433 42.2021 24.2747 42.2021C30.9022 42.2021 36.6108 39.5374 39.2401 35.7101L40.9402 36.0664C43.2611 36.5497 45.5654 35.0455 46.0467 32.7225L47.3759 26.3826C47.8592 24.0533 46.3528 21.7511 44.0299 21.2656ZM24.2726 40.0374C20.3599 40.0374 16.693 39.052 13.9575 37.2498C13.0199 36.6372 12.2428 35.956 11.6199 35.2268L12.9012 34.958C15.2264 34.4746 16.7327 32.1724 16.2473 29.8473L15.0576 24.147C15.7514 23.7741 16.4806 23.4469 17.2556 23.1678V24.2074C17.2556 26.5805 19.1974 28.5244 21.5746 28.5244H26.9769C29.3479 28.5244 31.2897 26.5784 31.2897 24.2074V23.1136C32.0793 23.3949 32.821 23.7179 33.5085 24.0845L32.3022 29.8494C31.8209 32.1745 33.3251 34.4768 35.6502 34.9601L36.944 35.2309C34.5315 38.0873 29.7583 40.0374 24.2726 40.0374Z" fill="white"/>
<path d="M42.8797 18.7906C46.0106 18.7906 48.5487 16.2524 48.5487 13.1215C48.5487 9.99062 46.0106 7.45251 42.8797 7.45251C39.7488 7.45251 37.2107 9.99062 37.2107 13.1215C37.2107 16.2524 39.7488 18.7906 42.8797 18.7906Z" fill="white"/>
<path d="M6.83218 18.6717C9.89898 18.03 11.8575 15.0237 11.224 11.9589C10.5782 8.89626 7.57801 6.92948 4.50909 7.57119C1.44644 8.21079 -0.520338 11.2151 0.121379 14.2799C0.761069 17.3467 3.76538 19.3114 6.83218 18.6717Z" fill="white"/>
</svg>
